<svg width="64" height="64" viewBox="0 0 64 64" xmlns="http://www.w3.org/2000/svg">
  <defs>
    <radialGradient id="space" cx="0" cy="0" r="1" gradientTransform="translate(23 18) rotate(53) scale(54)">
      <stop stop-color="#245c91" />
      <stop offset=".5" stop-color="#0b2348" />
      <stop offset="1" stop-color="#030817" />
    </radialGradient>
    <linearGradient id="arms" x1="12" y1="8" x2="20" y2="16" gradientUnits="userSpaceOnUse">
      <stop stop-color="#f6ffff" />
      <stop offset=".42" stop-color="#74ddff" />
      <stop offset="1" stop-color="#7867ff" />
    </linearGradient>
    <path id="spiral-arm" d="M12 12c1.2-2.2 3.6-3.3 5.6-2.6 2 .7 3.4 2.6 3.9 5.2-1.5-1.6-3.2-2.1-4.8-1.6-1.7.5-3.3 0-4.7-1Z" />
    <filter id="glow" x="-40%" y="-40%" width="180%" height="180%">
      <feGaussianBlur stdDeviation="1.25" result="blur" />
      <feMerge><feMergeNode in="blur" /><feMergeNode in="SourceGraphic" /></feMerge>
    </filter>
  </defs>
  <circle cx="32" cy="32" r="30" fill="url(#space)" stroke="#8cecff" stroke-width="2" />
  <g transform="translate(4 4) scale(2.333333)" filter="url(#glow)">
    <g fill="url(#arms)" stroke="#dffaff" stroke-width=".5" stroke-linejoin="round">
      <use href="#spiral-arm" />
      <use href="#spiral-arm" transform="rotate(72 12 12)" />
      <use href="#spiral-arm" transform="rotate(144 12 12)" />
      <use href="#spiral-arm" transform="rotate(216 12 12)" />
      <use href="#spiral-arm" transform="rotate(288 12 12)" />
    </g>
    <circle cx="12" cy="12" r="1.35" fill="#fff8a6" stroke="#f5ffff" stroke-width=".6" />
  </g>
</svg>
